# xmcd
#
# Track frame offsets:
#	150
#	11722
#	27209
#	40451
#	54501
#	68479
#	82663
#	95098
#	111887
#	131225
#	143728
#	155453
#	174502
#	187347
#	200770
#	223246
#	236143
#	248681
#	259777
#	273699
#
# Disc length: 3929 seconds
#
# Revision: 0
# Processed by: cddbd v1.5.2PL0 Copyright (c) Steve Scherf et al.
# Submitted via: EasyCDDAExtractor 16.0.6.1
#
DISCID=2d0f5714
DTITLE=Nos Tempos do Xadrezinho Vol. I
DYEAR=1900
DGENRE=Ballad
TTITLE0=Carbine - Have You Ever Seen The Rain
TTITLE1=Boobie Brother - Listen To The Music
TTITLE2=The Beatles - The Ballad Of Jhon and Yoko
TTITLE3=Creedence - Proud Mary
TTITLE4=Shocking Blue - Venus
TTITLE5=The Beatles - Get Back
TTITLE6=Christie - Yellow River
TTITLE7=Johnny Rivers - It's Too Late
TTITLE8=The Jove's - REflexions Of My Life
TTITLE9=Archives - Sugar, Sugar
TTITLE10=Herman's Hermits - There's a Kind Of Hush
TTITLE11=The Beatles - Come Together
TTITLE12=Stevie Wonder - My Cherie Amour
TTITLE13=BJ Thomas - Raindrops Keep Fallings On My Head
TTITLE14=Donavan - Atlantis
TTITLE15=Tommy Roe - Dizzy
TTITLE16=Dennis Yost - Stormy
TTITLE17=Hurricane Smith - Don't Let It Die
TTITLE18=Bee Gees - I Started a Joke
TTITLE19=Salvatore Adamo - F... Come Femme
EXTD=
EXTT0=
EXTT1=
EXTT2=
EXTT3=
EXTT4=
EXTT5=
EXTT6=
EXTT7=
EXTT8=
EXTT9=
EXTT10=
EXTT11=
EXTT12=
EXTT13=
EXTT14=
EXTT15=
EXTT16=
EXTT17=
EXTT18=
EXTT19=
PLAYORDER=
